<?xml version="1.0" encoding="UTF-8" standalone="no"?>
<!-- Created with Inkscape (http://www.inkscape.org/) -->

<svg
   width="40mm"
   height="14.296mm"
   viewBox="0 0 40 14.296"
   version="1.1"
   id="svg1"
   xml:space="preserve"
   inkscape:version="1.3-beta (cedbd6c6ff, 2023-05-28)"
   sodipodi:docname="handshake.svg"
   xmlns:inkscape="http://www.inkscape.org/namespaces/inkscape"
   xmlns:sodipodi="http://sodipodi.sourceforge.net/DTD/sodipodi-0.dtd"
   xmlns="http://www.w3.org/2000/svg"
   xmlns:svg="http://www.w3.org/2000/svg"><sodipodi:namedview
     id="namedview1"
     pagecolor="#ffffff"
     bordercolor="#000000"
     borderopacity="0.25"
     inkscape:showpageshadow="2"
     inkscape:pageopacity="0.0"
     inkscape:pagecheckerboard="0"
     inkscape:deskcolor="#d1d1d1"
     inkscape:document-units="mm"
     inkscape:zoom="6.222465"
     inkscape:cx="86.139496"
     inkscape:cy="26.597176"
     inkscape:window-width="3840"
     inkscape:window-height="2071"
     inkscape:window-x="2391"
     inkscape:window-y="-9"
     inkscape:window-maximized="1"
     inkscape:current-layer="layer1" /><defs
     id="defs1" /><g
     inkscape:label="Layer 1"
     inkscape:groupmode="layer"
     id="layer1"><g
       id="g4"
       transform="matrix(0.23476732,0,0,0.23476732,-4.6505676,-27.715188)"><rect
         style="fill:#f2f2f2;fill-opacity:1;stroke:#000000;stroke-width:0.119;stroke-dasharray:none"
         id="rect2"
         width="170.26247"
         height="60.773281"
         x="19.868763"
         y="118.11336" /><g
         id="g3"><ellipse
           style="fill:#ffd42a;fill-opacity:0.393814;stroke:#ffcc00;stroke-width:1;stroke-dasharray:none"
           id="path2"
           cx="105"
           cy="148.5"
           rx="56.725834"
           ry="28.362919" /><g
           id="g2"><path
             style="fill:#deaa87;stroke:#000000;stroke-width:0.3;stroke-dasharray:none"
             d="m 97.438385,173.84746 c -1.192437,-0.58795 -2.097493,-2.48143 -1.741116,-3.64261 l 0.259699,-0.84617 -1.019755,0.50453 c -2.349864,1.16262 -4.586366,-0.33284 -4.586366,-3.06672 v -1.70467 l -0.734249,0.25596 c -2.259516,0.78767 -5.021157,-1.73904 -4.31894,-3.95153 0.138146,-0.43525 0.03176,-0.48103 -0.909367,-0.39128 -2.510991,0.23946 -4.540326,-2.09711 -3.712471,-4.27453 2.171824,-5.71232 8.837179,-7.08684 8.837179,-1.82239 0,1.11045 0.01746,1.13313 0.748737,0.97251 2.15731,-0.47382 4.040704,1.28142 3.872352,3.60886 -0.108062,1.49394 -0.103222,1.50579 0.51846,1.26942 2.688435,-1.02214 5.506362,2.04593 4.192315,4.56445 l -0.36627,0.702 0.92447,-0.38627 c 1.060657,-0.44317 2.233237,-0.27757 3.282107,0.46352 3.543,2.50333 -1.31967,9.68124 -5.246785,7.74492 z m 10.444825,-0.62072 c -1.53185,-0.47256 -2.63955,-1.35981 -2.44664,-1.95971 1.11267,-3.46001 -0.35464,-6.75251 -3.38176,-7.58834 -0.74776,-0.20646 -0.96046,-0.43454 -1.22326,-1.31169 -0.45329,-1.51294 -1.688627,-2.79606 -3.254219,-3.38008 -1.14209,-0.42603 -1.389907,-0.64695 -1.68339,-1.50063 -0.473332,-1.37683 -1.856216,-2.72426 -3.334971,-3.24947 -1.011283,-0.35918 -1.265957,-0.58126 -1.392577,-1.21435 -1.068775,-5.34387 -8.360516,-4.20629 -11.739417,1.83147 -0.199193,0.35593 -2.696938,-0.67073 -3.986493,-1.63859 -0.05153,-0.0387 1.478274,-4.78627 3.39957,-10.55021 l 3.493266,-10.47988 1.142218,0.17129 c 1.82833,0.27417 3.66878,-0.28588 8.46281,-2.57526 8.113363,-3.87452 8.692173,-4.04374 11.065563,-3.23505 1.64192,0.55946 2.00682,0.32272 -6.252468,4.05654 -7.272518,3.28773 -7.272518,3.28773 -7.428957,4.23334 -1.503355,9.08711 4.965512,11.23526 16.740165,5.559 l 3.80556,-1.83456 3.2059,2.98578 c 16.38214,15.2573 16.03819,14.91499 16.03819,15.96205 0,1.01797 -0.98414,2.69532 -1.84154,3.1387 -1.6571,0.85692 -1.99823,0.67151 -5.83138,-3.16954 -1.96048,-1.96454 -3.76179,-3.57188 -4.0029,-3.57188 -1.13466,0 -0.52263,0.90506 2.96794,4.38896 3.96204,3.95445 4.08684,4.18124 3.31598,6.02616 -1.38111,3.30547 -3.12913,2.9004 -7.83726,-1.81616 -2.10629,-2.11005 -4.03952,-3.83646 -4.29606,-3.83646 -1.14004,0 -0.33219,1.14706 3.10543,4.40941 3.37698,3.20479 3.57188,3.44517 3.57188,4.40532 0,1.72377 -1.18139,2.65533 -3.18375,2.5105 l -1.57489,-0.11392 -3.94028,-3.88586 c -2.16715,-2.13723 -4.12553,-3.88587 -4.35194,-3.88587 -1.10293,0 -0.53186,0.83077 3.01026,4.37923 l 3.78499,3.79175 -0.48163,1.06807 c -0.72767,1.61368 -2.14191,2.3433 -3.64394,1.87994 z m 11.5435,-28.4167 -9.26673,-8.56712 -4.21603,2.07024 c -9.553861,4.69136 -14.384524,4.52469 -14.868582,-0.51301 -0.245144,-2.55125 -0.872441,-2.11355 10.316432,-7.19837 l 10.12571,-4.60167 2.11667,0.0117 c 2.57091,0.0142 4.16778,0.6661 6.74687,2.75428 3.10074,2.51053 4.74157,3.30627 7.52198,3.64788 l 1.56885,0.19275 2.32622,9.64278 c 1.27942,5.30353 2.29108,9.67792 2.24813,9.72087 -0.043,0.043 -1.08136,0.32338 -2.30758,0.62317 -1.22621,0.29979 -2.41302,0.59874 -2.63735,0.66434 -0.26037,0.0761 -3.75902,-2.97886 -9.67459,-8.44783 z"
             id="path1"
             sodipodi:nodetypes="sscsscssssssssscsssssssssssssscsssssscsssssssssssscssscssccssscssscsssssc" /><path
             d="m 67.27898,151.56156 c -3.804777,-1.30958 -4.376618,-1.5801 -4.451197,-2.10575 -0.11292,-0.79588 6.74524,-21.35241 7.268591,-21.78675 0.482629,-0.40055 8.596406,2.12727 9.450811,2.94437 0.840379,0.80368 -6.524039,22.53989 -7.612858,22.46949 -0.159347,-0.0103 -2.254253,-0.69492 -4.655347,-1.52136 z"
             style="fill:#80b3ff;stroke:#000000;stroke-width:0.3;stroke-dasharray:none"
             id="path1-4" /><path
             d="m 136.75512,152.35168 c -1.00899,-1.88533 -5.11198,-20.79417 -4.60173,-21.20734 0.93506,-0.75717 9.27572,-2.56731 9.72306,-2.11016 0.49493,0.50577 5.24049,20.30774 5.04932,21.06944 -0.16266,0.6481 -0.10321,0.62703 -5.42821,1.92364 -3.83921,0.93482 -4.3954,0.97287 -4.74244,0.32442 z"
             style="fill:#80b3ff;fill-opacity:1;stroke:#000000;stroke-width:0.3;stroke-dasharray:none"
             id="path1-0" /></g></g></g></g></svg>
